<?xml version="1.0" encoding="UTF-8"?>
<svg id="Layer_1" xmlns="http://www.w3.org/2000/svg" xmlns:svgjs="http://svgjs.dev/svgjs" version="1.1" viewBox="0 0 36 36">
  <!-- Generator: Adobe Illustrator 29.7.1, SVG Export Plug-In . SVG Version: 2.1.1 Build 8)  -->
  <path d="M3.32,26.568s.814.385,2.221.811c.716.257,1.496.509,2.328.736,2.259.616,4.45.923,6.534.923,2.94,0,5.666-.611,8.069-1.826,7.508-3.796,9.085-6.273,10.911-9.14.565-.886,1.588-3.095,1.588-3.095V.81H1.028v10.835c2.283-1.84,8.728-6.534,15.389-6.797,8.023-.317,13.799,3.757,14.169,4.024-10.017-3.036-17.504.11-22.103,3.401-5.232,3.745-7.455,7.677-7.455,7.677v15.239h33.943v-10.407c-2.485,2.03-9.312,7.089-15.935,7.351-8.295.327-15.716-5.566-15.716-5.566v.001ZM10.461,12.387c-.047.908-.057,2.192.091,3.68-.978.907-1.925,1.972-2.809,3.219-.04-.343-.062-.691-.062-1.044,0-1.841.566-3.56,1.543-5.024.409-.292.822-.568,1.237-.831ZM20.931,8.873c1.561.367,2.983,1.05,4.178,1.971-.99-.04-2.307-.019-3.824.193-.702-.77-1.447-1.422-2.232-1.95.62-.099,1.247-.168,1.878-.214ZM14.831,24.688c-.765-1.088-1.352-2.237-1.799-3.388l4.869-2.035,2.05,4.18c-1.06.426-2.172.755-3.338.983-.622.122-1.218.205-1.781.26h-.001ZM15.811,27.657c-1.451-.316-2.787-.904-3.938-1.703.32.017.672.029,1.056.029.408,0,.849-.013,1.318-.043.463.595.985,1.169,1.564,1.717ZM19.008,18.802l4.552-1.903c.546,1.239.971,2.462,1.295,3.545-1.171,1.012-2.441,1.851-3.809,2.514l-2.038-4.156ZM22.196,12.136c2.11-.214,3.728-.051,4.331.03.462.522.863,1.089,1.2,1.692l-3.564,1.49c-.596-1.198-1.254-2.271-1.966-3.212h-.001ZM20.825,12.323c.879,1.063,1.615,2.266,2.226,3.49l-4.572,1.911-2.02-4.119c1.093-.469,2.246-.84,3.462-1.107.307-.067.608-.125.903-.175h.001ZM17.371,18.186l-4.738,1.981c-.4-1.271-.647-2.519-.793-3.662,1.084-.943,2.262-1.741,3.534-2.392,0,0,1.997,4.073,1.997,4.073ZM11.894,21.775c.398,1.011.9,2.022,1.528,3-1.717.043-2.908-.156-3.16-.203-.467-.493-.88-1.028-1.231-1.6l2.863-1.197ZM17.54,27.579c-.693-.555-1.306-1.154-1.849-1.784.356-.049.723-.108,1.099-.18,1.108-.214,2.363-.556,3.684-1.1l.923,1.883c-1.268.58-2.565.959-3.858,1.181h.001ZM22.472,25.865l-.904-1.843c1.197-.584,2.429-1.342,3.638-2.322.287,1.109.447,1.953.514,2.333-.924.576-1.995,1.183-3.248,1.831v.001ZM25.148,17.578c-.153-.393-.313-.771-.477-1.143l3.572-1.493c.259.652.23.561.331,1.269l-.316.412c-.743,1.076-1.551,2.047-2.419,2.914-.198-.623-.426-1.281-.69-1.958l-.001-.001ZM28.865,17.835c.006.135.011.271.011.408,0,1.603-.427,3.115-1.182,4.446-.278.208-.568.419-.885.635-.112-.579-.301-1.453-.591-2.504.913-.849,1.803-1.837,2.646-2.986l.001.001ZM17.285,9.445c.959.463,1.817,1.095,2.583,1.839-.051.011-.102.021-.154.032-1.146.248-2.435.632-3.779,1.221l-1.137-2.319c.818-.308,1.647-.566,2.486-.772l.001-.001ZM11.721,11.641c.647-.358,1.302-.682,1.965-.973l1.168,2.382c-1.044.536-2.107,1.201-3.151,2.028-.104-1.555-.037-2.794.019-3.438l-.001.001ZM11.49,20.645l-3.021,1.263c-.144-.322-.269-.653-.375-.991.795-1.257,1.681-2.381,2.652-3.377.162.992.401,2.04.744,3.105Z" fill="#1ba098"/>
</svg>